/* XPM */
static char *carrot2[] = {
/* columns rows colors chars-per-pixel */
"64 64 48 1 ",
"  c black",
". c #774012",
"X c #577F34",
"o c #853F0F",
"O c #863F0F",
"+ c #873F0F",
"@ c #964107",
"# c #9E4407",
"$ c #974108",
"% c #8A4F1F",
"& c #8E4C1E",
"* c #8F4D1E",
"= c #944510",
"- c #984812",
"; c #984E1C",
": c #994E1C",
"> c #A7551E",
", c #A8551E",
"< c #8B4F20",
"1 c #A55520",
"2 c #A65621",
"3 c #C25913",
"4 c #C35A13",
"5 c #D36318",
"6 c #D36419",
"7 c #D46418",
"8 c #D46419",
"9 c #E46917",
"0 c #FF781E",
"q c #C76B28",
"w c #C76A29",
"e c #E1762E",
"r c #E1772E",
"t c #FC7921",
"y c #FC7922",
"u c #FE7F2A",
"i c #6E995A",
"p c #69B548",
"a c #77CE52",
"s c #79D253",
"d c #7AD354",
"f c #81B569",
"g c #8DC473",
"h c #92CE77",
"j c #92CF77",
"k c #95D37A",
"l c #A2E485",
"z c #A2E486",
/* pixels */
"dddddddddddddddddddddddddddddddddddddddddddddddddddddddddddddddd",
"dddddddddddddddddddddddddddddddddddddddddddddddddddddddddddddddd",
"ddddddddddddddddddddddddddddddddddddddddddddddddddddddddppdddddd",
"ddddddddddddddddddddddddddddddddddddddddddddddddddddddddppdddddd",
"ddddddddddddddddddddddddddddddddddddddddddddddddddddddddppdddddd",
"ddddddddddddddddddddddddddddddddddddddddddddddddddddddddppdddddd",
"dddddddddddddddddddddddddddddddddddddddddddddddddddddddddddddddd",
"dddddddddddddddddddddddddddddddddddddddddddddddddddddddddddddddd",
"ddddddddddddddppdddddddddddddddddddddddddddddddddddddddddddddddd",
"ddddddddddddddppdddddddddddddddddddddddddddddddddddddddddddddddd",
"ddddddddddddddddppdddddddddddddddddddddddddddddddddddddddddddddd",
"ddddddddddddddddppdddddddddddddddddddddddddddddddddddddddddddddd",
"ddddddddddddddddppdddddddddddddddddddddddddddddddddddddddddddddd",
"ddddddddddddddddppdddddddddddddddddddddddddddddddddddddddddddddd",
"dddddddddddddddddddddddddddddd    dddddddddddddddddddddddddddddd",
"dddddddddddddddddddddddddddddd    dddddddddddddddddddddddddddddd",
"dddddddddddddddddddddddddddd  ffff  dddddddddddddddddddddddddddd",
"dddddddddddddddddddddddddddd  ffff  dddddddddddddddddddddddddddd",
"dddddddddddddddddddddd      ffggggff      dddddddddddddddddddddd",
"dddddddddddddddddddddd      ffggggff      dddddddddddddddddddddd",
"dddddddddddddddddddd  ffffffiiggggiiffffff  dddddddddddddddddddd",
"dddddddddddddddddddd  ffffffiiggggiiffffff  dddddddddddddddddddd",
"dddddddddddddddddddd  ffjjkkllggggllkkjjff  dddddddddddddddddddd",
"dddddddddddddddddddd  ffjjkkllggggzlkkjjff  dddddddddddddddddddd",
"dddddddddddddddddddd  kkkkkkjjggggjjkkkkkk  dddddddddddddddddddd",
"dddddddddddddddddddd  kkkkkkjjggggjjkkkkkk  dddddddddddddddddddd",
"dddddddddddddddddddd  kk    kkggggkk    kk  dddddddddddddddddddd",
"dddddddddddddddddddd  kk    kkggggkk    kk  dddddddddddddddddddd",
"dddddddddddddddddddddd  dddd  gggg  XXdd  dddddddddddddddddddddd",
"dddddddddddddddddddddd  dddd  gggg  XXdd  dddddddddddddddddddddd",
"dddddddddddddddddddddddddd  eeuuuurr  dddddddddddddddddddddddddd",
"dddddddddddddddddddddddddd  eeuuuurr  dddddddddddddddddddddddddd",
"dddddddddddddddddddddddd  qqyt00t0ttqq  dddddddddddddddddddddddd",
"dddddddddddddddddddddddd  qqyt0000ttqq  dddddddddddddddddddddddd",
"ddddddddddddddddddssdd    66t000000088    dddddddddddddddddddddd",
"ddddddddddddddddddssdd    660000000088    dddddddddddddddddddddd",
"dddddddddddddddddddd  ..  660000000087  ..  dddddddddddddddddddd",
"dddddddddddddddddddd  ..  66tt00000077  ..  dddddddddddddddddddd",
"ddddddppdddddddddddd  ++  339999999944  ++  dddddddddddddddddddd",
"ddddddppdddddddddddd  ++  339999999944  ++  dddddddddddddddddddd",
"ddddddppdddddddddddd  ;;oo+@########$$=o;;  dddddddddddddddddddd",
"ddddddppdddddddddddd  ;;o=@@########$$oo;;  dddddddddddddddddddd",
"ddddddddppdddddddddd  %%,,--$=======--,,<<  dddddddddddddddddddd",
"ddddddddppdddddddddd  %%,2--$=======--,2<<  dddddddddddddddddddd",
"ddddddddppdddddddddddd  &&121111111111**  ddaadddddddddddddddddd",
"ddddddddppdddddddddddd  &&111111111121**  ddaadddddddddddddddddd",
"ddddddddppdddddddddddddd                dddddddddddddddddddddddd",
"ddddddddppdddddddddddddd                dddddddddddddddddddddddd",
"dddddddddddddddddddddddddddddddddddddddddddddddddddddddddddddddd",
"dddddddddddddddddddddddddddddddddddddddddddddddddddddddddddddddd",
"dddddddddddddddddddddddddddddddddddddddddddddddddddddddddddddddd",
"dddddddddddddddddddddddddddddddddddddddddddddddddddddddddddddddd",
"ddddddddddddddddddddddddddddddddddddddddddddddddddddddppdddddddd",
"ddddddddddddddddddddddddddddddddddddddddddddddddddddddppdddddddd",
"ddddddddddddddddddddddddddddddppddddddddddddddddddddddddppdddddd",
"ddddddddddddddddddddddddddddddppddddddddddddddddddddddddppdddddd",
"ddddddddddddddddddddddddddddddppddddddddddddddddddddddddppdddddd",
"ddddddddddddddddddddddddddddddppddddddddddddddddddddddddppdddddd",
"dddddddddddddddddddddddddddddddddddddddddddddddddddddddddddddddd",
"dddddddddddddddddddddddddddddddddddddddddddddddddddddddddddddddd",
"dddddddddddddddddddddddddddddddddddddddddddddddddddddddddddddddd",
"dddddddddddddddddddddddddddddddddddddddddddddddddddddddddddddddd",
"dddddddddddddddddddddddddddddddddddddddddddddddddddddddddddddddd",
"dddddddddddddddddddddddddddddddddddddddddddddddddddddddddddddddd"
};
