/* XPM */
static char *evil_rabbit_big[] = {
/* columns rows colors chars-per-pixel */
"64 64 9 1 ",
"  c black",
". c #797979",
"X c #FF0022",
"o c #69B548",
"O c #7AD354",
"+ c #989898",
"@ c gray65",
"# c #B2B2B2",
"$ c #BBBBBB",
/* pixels */
"OOOOOOOOOOOOOOOOOOOOOOOOOOOOOOOOOOOOOOOOOOOOOOOOOOOOOOOOOOOOOOOO",
"OOOOOOOOOOOOOOOOOOOOOOOOOOOOOOOOOOOOOOOOOOOOOOOOOOOOOOOOOOOOOOOO",
"OOOOOOOOOOOOOOOOOOOOOOOOOOOOOOOOOOOOOOOOOOOOOOOOOOOOOOOOooOOOOOO",
"OOOOOOOOOOOOOOOOOOOOOOOOOOOOOOOOOOOOOOOOOOOOOOOOOOOOOOOOooOOOOOO",
"OOOOOOOOOOOOOOOOOOOOOOOOOOOOOOOOOOOOOOOOOOOOOOOOOOOOOOOOooOOOOOO",
"OOOOOOOOOOOOOOOOOOOOOOOOOOOOOOOOOOOOOOOOOOOOOOOOOOOOOOOOooOOOOOO",
"OOOOOOOOOOOOOOOOOOOOOOOOOOOOOOOOOOOOOOOOOOOOOOOOOOOOOOOOOOOOOOOO",
"OOOOOOOOOOOOOOOOOOOOOOOOOOOOOOOOOOOOOOOOOOOOOOOOOOOOOOOOOOOOOOOO",
"OOOOOOOOOOOOOOooOOOOOOOOOOOOOOOOOOOOOOOOOOOOOOOOOOOOOOOOOOOOOOOO",
"OOOOOOOOOOOOOOooOOOOOOOOOOOOOOOOOOOOOOOOOOOOOOOOOOOOOOOOOOOOOOOO",
"OOOOOOOOOOOOOOOOooOOOOOOOOOOOOOOOOOOOOOOOOOOOOOOOOOOOOOOOOOOOOOO",
"OOOOOOOOOOOOOOOOooOOOOOOOOOOOOOOOOOOOOOOOOOOOOOOOOOOOOOOOOOOOOOO",
"OOOOOOOOOOOOOOOOooOOOOOO    OOOOOOOO    OOOOOOOOOOOOOOOOOOOOOOOO",
"OOOOOOOOOOOOOOOOooOOOOOO    OOOOOOOO    OOOOOOOOOOOOOOOOOOOOOOOO",
"OOOOOOOOOOOOOOOOOOOOOO  @@@@  OOOO  @@@@  OOOOOOOOOOOOOOOOOOOOOO",
"OOOOOOOOOOOOOOOOOOOOOO  @@@@  OOOO  @@@@  OOOOOOOOOOOOOOOOOOOOOO",
"OOOOOOOOOOOOOOOOOOOOOO  @@..  OOOO  ..@@  OOOOOOOOOOOOOOOOOOOOOO",
"OOOOOOOOOOOOOOOOOOOOOO  @@..  OOOO  ..@@  OOOOOOOOOOOOOOOOOOOOOO",
"OOOOOOOOOOOOOOOOOOOOOO  @@..  OOOO  ..@@  OOOOOOOOOOOOOOOOOOOOOO",
"OOOOOOOOOOOOOOOOOOOOOO  @@..  OOOO  ..@@  OOOOOOOOOOOOOOOOOOOOOO",
"OOOOOOOOOOOOOOOOOOOOOO  @@..  OOOO  ..@@  OOOOOOOOOOOOOOOOOOOOOO",
"OOOOOOOOOOOOOOOOOOOOOO  @@..  OOOO  ..@@  OOOOOOOOOOOOOOOOOOOOOO",
"OOOOOOOOOOOOOOOOOOOOOO  @@..        ..@@  OOOOOOOOOOOOOOOOOOOOOO",
"OOOOOOOOOOOOOOOOOOOOOO  @@..        ..@@  OOOOOOOOOOOOOOOOOOOOOO",
"OOOOOOOOOOOOOOOOOOOOOO  @@############@@  OOOOOOOOOOOOOOOOOOOOOO",
"OOOOOOOOOOOOOOOOOOOOOO  @@############@@  OOOOOOOOOOOOOOOOOOOOOO",
"OOOOOOOOOOOOOOOOOOOO  @@##XX$$$$$$$$XX##@@  OOOOOOOOOOOOOOOOOOOO",
"OOOOOOOOOOOOOOOOOOOO  @@##XX$$$$$$$$XX##@@  OOOOOOOOOOOOOOOOOOOO",
"OOOOOOOOOOOOOOOOOOOO  @@$$XX$$$$$$$$XX$$@@  OOOOOOOOOOOOOOOOOOOO",
"OOOOOOOOOOOOOOOOOOOO  @@$$XX$$$$$$$$XX$$@@  OOOOOOOOOOOOOOOOOOOO",
"OOOOOOOOOOOOOOOOOOOO  @@$$$$$$    $$$$$$@@  OOOOOOOOOOOOOOOOOOOO",
"OOOOOOOOOOOOOOOOOOOO  @@$$$$$$    $$$$$$@@  OOOOOOOOOOOOOOOOOOOO",
"OOOOOOOOOOOOOOOOOOOO  @@$$$$$$$$$$$$$$$$@@  OOOOOOOOOOOOOOOOOOOO",
"OOOOOOOOOOOOOOOOOOOO  @@$$$$$$$$$$$$$$$$@@  OOOOOOOOOOOOOOOOOOOO",
"OOOOOOOOOOOOOOOOOOOO  @@$$$$$$$$$$$$$$$$@@  OOOOOOOOOOOOOOOOOOOO",
"OOOOOOOOOOOOOOOOOOOO  @@$$$$$$$$$$$$$$$$@@  OOOOOOOOOOOOOOOOOOOO",
"OOOOOOOOOOOOOOOOOOOOOO  $$$$$$$$$$$$$$$$  OOOOOOOOOOOOOOOOOOOOOO",
"OOOOOOOOOOOOOOOOOOOOOO  $$$$$$$$$$$$$$$$  OOOOOOOOOOOOOOOOOOOOOO",
"OOOOOOooOOOOOOOOOOOOOOOO                OOOOOOOOOOOOOOOOOOOOOOOO",
"OOOOOOooOOOOOOOOOOOOOOOO                OOOOOOOOOOOOOOOOOOOOOOOO",
"OOOOOOooOOOOOOOOOOOOOOOO  ++++++++++++  OOOOOOOOOOOOOOOOOOOOOOOO",
"OOOOOOooOOOOOOOOOOOOOOOO  ++++++++++++  OOOOOOOOOOOOOOOOOOOOOOOO",
"OOOOOOOOooOOOOOOOOOOOOOO  ++@@@@@@@@++  OOOOOOOOOOOOOOOOOOOOOOOO",
"OOOOOOOOooOOOOOOOOOOOOOO  ++@@@@@@@@++  OOOOOOOOOOOOOOOOOOOOOOOO",
"OOOOOOOOooOOOOOOOOOOOO    @@@@$$$$$$@@    OOOOOOOOOOOOOOOOOOOOOO",
"OOOOOOOOooOOOOOOOOOOOO    @@@@$$$$$$@@    OOOOOOOOOOOOOOOOOOOOOO",
"OOOOOOOOooOOOOOOOOOO  @@  @@@@$$$$$$@@  @@  OOOOOOOOOOOOOOOOOOOO",
"OOOOOOOOooOOOOOOOOOO  @@  @@@@$$$$$$@@  @@  OOOOOOOOOOOOOOOOOOOO",
"OOOOOOOOOOOOOOOOOO  @@@@  @@@@$$  $$@@  @@@@  OOOOOOOOOOOOOOOOOO",
"OOOOOOOOOOOOOOOOOO  @@@@  @@@@$$  $$@@  @@@@  OOOOOOOOOOOOOOOOOO",
"OOOOOOOOOOOOOOOOOO  @@$$  @@@@$$  $$@@  $$@@  OOOOOOOOOOOOOOOOOO",
"OOOOOOOOOOOOOOOOOO  @@$$  @@@@$$  $$@@  $$@@  OOOOOOOOOOOOOOOOOO",
"OOOOOOOOOOOOOOOOOO  @@$$  @@@@$$  $$@@  $$@@  OOOOOOOOooOOOOOOOO",
"OOOOOOOOOOOOOOOOOO  @@$$  @@@@$$  $$@@  $$@@  OOOOOOOOooOOOOOOOO",
"OOOOOOOOOOOOOOOOOO                            OOOOOOOOOOooOOOOOO",
"OOOOOOOOOOOOOOOOOO                            OOOOOOOOOOooOOOOOO",
"OOOOOOOOOOOOOOOOOOOOOOOOOOOOOOooOOOOOOOOOOOOOOOOOOOOOOOOooOOOOOO",
"OOOOOOOOOOOOOOOOOOOOOOOOOOOOOOooOOOOOOOOOOOOOOOOOOOOOOOOooOOOOOO",
"OOOOOOOOOOOOOOOOOOOOOOOOOOOOOOOOOOOOOOOOOOOOOOOOOOOOOOOOOOOOOOOO",
"OOOOOOOOOOOOOOOOOOOOOOOOOOOOOOOOOOOOOOOOOOOOOOOOOOOOOOOOOOOOOOOO",
"OOOOOOOOOOOOOOOOOOOOOOOOOOOOOOOOOOOOOOOOOOOOOOOOOOOOOOOOOOOOOOOO",
"OOOOOOOOOOOOOOOOOOOOOOOOOOOOOOOOOOOOOOOOOOOOOOOOOOOOOOOOOOOOOOOO",
"OOOOOOOOOOOOOOOOOOOOOOOOOOOOOOOOOOOOOOOOOOOOOOOOOOOOOOOOOOOOOOOO",
"OOOOOOOOOOOOOOOOOOOOOOOOOOOOOOOOOOOOOOOOOOOOOOOOOOOOOOOOOOOOOOOO"
};
