/* XPM */
static char *hole2[] = {
/* columns rows colors chars-per-pixel */
"64 64 6 1 ",
"  c black",
". c #9E4407",
"X c #8F4D1E",
"o c #A7551E",
"O c #69B548",
"+ c #7AD354",
/* pixels */
"++++++++++++++++++++++++++++++++++++++++++++++++++++++++++++++++",
"++++++++++++++++++++++++++++++++++++++++++++++++++++++++++++++++",
"++++++++++++++++++++++++++++++++++++++++++++++++++++++++OO++++++",
"++++++++++++++++++++++++++++++++++++++++++++++++++++++++OO++++++",
"++++++++++++++++++++++++++++++++++++++++++++++++++++++++OO++++++",
"++++++++++++++++++++++++++++++++++++++++++++++++++++++++OO++++++",
"++++++++++++++++++++++++++++++++++++++++++++++++++++++++++++++++",
"++++++++++++++++++++++++++++++++++++++++++++++++++++++++++++++++",
"++++++++++++++OO++++++++++++++++++++++++++++++++++++++++++++++++",
"++++++++++++++OO++++++++++++++++++++++++++++++++++++++++++++++++",
"++++++++++++++++OO++++++++++++++++++++++++++++++++++++++++++++++",
"++++++++++++++++OO++++++++++++++++++++++++++++++++++++++++++++++",
"++++++++++++++++OO++++++++++++++++++++++++++++++++++++++++++++++",
"++++++++++++++++OO++++++++++++++++++++++++++++++++++++++++++++++",
"++++++++++++++++++++++++++++++++++++++++++++++++++++++++++++++++",
"++++++++++++++++++++++++++++++++++++++++++++++++++++++++++++++++",
"++++++++++++++++++++++++++++++++++++++++++++++++++++++++++++++++",
"++++++++++++++++++++++++++++++++++++++++++++++++++++++++++++++++",
"++++++++++++++++++++++++++++++++++++++++++++++++++++++++++++++++",
"++++++++++++++++++++++++++++++++++++++++++++++++++++++++++++++++",
"++++++++++++++++++++++++++++++++++++++++++++++++++++++++++++++++",
"++++++++++++++++++++++++++++++++++++++++++++++++++++++++++++++++",
"++++++++++++++++++++++++++++++++++++++++++++++++++++++++++++++++",
"++++++++++++++++++++++++++++++++++++++++++++++++++++++++++++++++",
"++++++++++++++++++++++++++++++++++++++++++++++++++++++++++++++++",
"++++++++++++++++++++++++++++++++++++++++++++++++++++++++++++++++",
"++++++++++++++++++++++++++++++OO++++++++++++++++++++++++++++++++",
"++++++++++++++++++++++++++++++OO++++++++++++++++++++++++++++++++",
"++++++++++++++++++++++++++++OO++++++++++++++++++++++++++++++++++",
"++++++++++++++++++++++++++++OO++++++++++++++++++++++++++++++++++",
"++++++++++++++++++++++++++++OO++++++++++++++++++++++++++++++++++",
"++++++++++++++++++++++++++++OO++++++++++++++++++++++++++++++++++",
"++++++++++++++++++++++++++              ++++++++++++++++++++++++",
"++++++++++++++++++++++++++              ++++++++++++++++++++++++",
"++++++++++++++++++++      ..............      ++++++++++++++++++",
"++++++++++++++++++++      ..............      ++++++++++++++++++",
"++++++++++++++      ........          ........      ++++++++++++",
"++++++++++++++      ........          ........      ++++++++++++",
"++++++OO++    oooo....                      ....oooo    ++++++++",
"++++++OO++    oooo....                      ....oooo    ++++++++",
"++++++OO  XXXXoooo....                      ....ooooXXXX  ++++++",
"++++++OO  XXXXoooo....                      ....ooooXXXX  ++++++",
"++++++++OO    XXoooo......              ......ooooXX    ++++++++",
"++++++++OO    XXoooo......              ......ooooXX    ++++++++",
"++++++++OO++++    XXXXoo..................ooXXXX    ++++++++++++",
"++++++++OO++++    XXXXoo..................ooXXXX    ++++++++++++",
"++++++++OO++++++++      XXXXooooooooooXXXX      ++++++++++++++++",
"++++++++OO++++++++      XXXXooooooooooXXXX      ++++++++++++++++",
"++++++++++++++++++++++++                  ++++++++++++++++++++++",
"++++++++++++++++++++++++                  ++++++++++++++++++++++",
"++++++++++++++++++++++++++++++++++++++++++++++++++++++++++++++++",
"++++++++++++++++++++++++++++++++++++++++++++++++++++++++++++++++",
"++++++++++++++++++++++++++++++++++++++++++++++++++++++OO++++++++",
"++++++++++++++++++++++++++++++++++++++++++++++++++++++OO++++++++",
"++++++++++++++++++++++++++++++OO++++++++++++++++++++++++OO++++++",
"++++++++++++++++++++++++++++++OO++++++++++++++++++++++++OO++++++",
"++++++++++++++++++++++++++++++OO++++++++++++++++++++++++OO++++++",
"++++++++++++++++++++++++++++++OO++++++++++++++++++++++++OO++++++",
"++++++++++++++++++++++++++++++++++++++++++++++++++++++++++++++++",
"++++++++++++++++++++++++++++++++++++++++++++++++++++++++++++++++",
"++++++++++++++++++++++++++++++++++++++++++++++++++++++++++++++++",
"++++++++++++++++++++++++++++++++++++++++++++++++++++++++++++++++",
"++++++++++++++++++++++++++++++++++++++++++++++++++++++++++++++++",
"++++++++++++++++++++++++++++++++++++++++++++++++++++++++++++++++"
};
