/* XPM */
static char * panel_2_xpm[] = {
"90 32 5 1",
" 	c #000000",
".	c #513414",
"+	c #5F401D",
"@	c #4D3314",
"#	c #34210D",
"                                                                                          ",
"                                                                                          ",
"  ......................................................................................  ",
"  ......................................................................................  ",
"  ......................................................................................  ",
"  .....+++++++++++++++++++++++++++++++++++++++++++++++++++++++++++++++++++++++++++++....  ",
"  .....+++++++++++++++++++++++++++++++++++++++++++++++++++++++++++++++++++++++++++++....  ",
"  @....+++++++++++++++++++++++++++++++++++++++++++++++++++++++++++++++++++++++++++++....  ",
"  .....+++++++++++++++++++++++++++++++++++++++++++++++++++++++++++++++++++++++++++++....  ",
"  .....+++++++++++++++++++++++++++++++++++++++++++++++++++++++++++++++++++++++++++++....  ",
"  .....++##++##++##+++++++++++++++++++++++++++++++++++++++++++++++++++++++++++++++++....  ",
"  .....++##++##++##+++++++++++++++++++++++++++++++++++++++++++++++++++++++++++++++++....  ",
"  .....++##########+++++++++++++++++++++++++++++++++++++++++++++++++++++++++++++++++....  ",
"  .....++##########+++++++++++++++++++++++++++++++++++++++++++++++++++++++++++++++++....  ",
"  .....++##########+++++++++++++++++++++++++++++++++++++++++++++++++++++++++++++++++....  ",
"  .....++++######+++++++++++++++++++++++++++++++++++++++++++++++++++++++++++++++++++....  ",
"  .....++++######+++++++++++++++++++++++++++++++++++++++++++++++++++++++++++++++++++....  ",
"  .....++++######+++++++++++++++++++++++++++++++++++++++++++++++++++++++++++++++++++....  ",
"  .....++++######+++++++++++++++++++++++++++++++++++++++++++++++++++++++++++++++++++....  ",
"  .....++++######+++++++++++++++++++++++++++++++++++++++++++++++++++++++++++++++++++....  ",
"  .....++++++##+++++++++++++++++++++++++++++++++++++++++++++++++++++++++++++++++++++....  ",
"  .....++++++##+++++++++++++++++++++++++++++++++++++++++++++++++++++++++++++++++++++....  ",
"  .....++++++##+++++++++++++++++++++++++++++++++++++++++++++++++++++++++++++++++++++....  ",
"  .....++++++##+++++++++++++++++++++++++++++++++++++++++++++++++++++++++++++++++++++....  ",
"  .....+++++++++++++++++++++++++++++++++++++++++++++++++++++++++++++++++++++++++++++....  ",
"  .....+++++++++++++++++++++++++++++++++++++++++++++++++++++++++++++++++++++++++++++....  ",
"  .....+++++++++++++++++++++++++++++++++++++++++++++++++++++++++++++++++++++++++++++....  ",
"  ......................................................................................  ",
"  ......................................................................................  ",
"  ......................................................................................  ",
"                                                                                          ",
"                                                                                          "};
