/* XPM */
static char *big_rabbit[] = {
/* columns rows colors chars-per-pixel */
"64 64 7 1 ",
"  c black",
". c #69B548",
"X c #7AD354",
"o c #FF93FF",
"O c gray95",
"+ c #F9F9F9",
"@ c white",
/* pixels */
"XXXXXXXXXXXXXXXXXXXXXXXXXXXXXXXXXXXXXXXXXXXXXXXXXXXXXXXXXXXXXXXX",
"XXXXXXXXXXXXXXXXXXXXXXXXXXXXXXXXXXXXXXXXXXXXXXXXXXXXXXXXXXXXXXXX",
"XXXXXXXXXXXXXXXXXXXXXXXXXXXXXXXXXXXXXXXXXXXXXXXXXXXXXXXX..XXXXXX",
"XXXXXXXXXXXXXXXXXXXXXXXXXXXXXXXXXXXXXXXXXXXXXXXXXXXXXXXX..XXXXXX",
"XXXXXXXXXXXXXXXXXXXXXXXXXXXXXXXXXXXXXXXXXXXXXXXXXXXXXXXX..XXXXXX",
"XXXXXXXXXXXXXXXXXXXXXXXXXXXXXXXXXXXXXXXXXXXXXXXXXXXXXXXX..XXXXXX",
"XXXXXXXXXXXXXXXXXXXXXXXXXXXXXXXXXXXXXXXXXXXXXXXXXXXXXXXXXXXXXXXX",
"XXXXXXXXXXXXXXXXXXXXXXXXXXXXXXXXXXXXXXXXXXXXXXXXXXXXXXXXXXXXXXXX",
"XXXXXXXXXXXXXX..XXXXXXXXXXXXXXXXXXXXXXXXXXXXXXXXXXXXXXXXXXXXXXXX",
"XXXXXXXXXXXXXX..XXXXXXXXXXXXXXXXXXXXXXXXXXXXXXXXXXXXXXXXXXXXXXXX",
"XXXXXXXXXXXXXXXX..XXXXXXXXXXXXXXXXXXXXXXXXXXXXXXXXXXXXXXXXXXXXXX",
"XXXXXXXXXXXXXXXX..XXXXXXXXXXXXXXXXXXXXXXXXXXXXXXXXXXXXXXXXXXXXXX",
"XXXXXXXXXXXXXXXX..XXXXXX    XXXXXXXX    XXXXXXXXXXXXXXXXXXXXXXXX",
"XXXXXXXXXXXXXXXX..XXXXXX    XXXXXXXX    XXXXXXXXXXXXXXXXXXXXXXXX",
"XXXXXXXXXXXXXXXXXXXXXX  OOOO  XXXX  OOOO  XXXXXXXXXXXXXXXXXXXXXX",
"XXXXXXXXXXXXXXXXXXXXXX  OOOO  XXXX  OOOO  XXXXXXXXXXXXXXXXXXXXXX",
"XXXXXXXXXXXXXXXXXXXXXX  OOoo  XXXX  ooOO  XXXXXXXXXXXXXXXXXXXXXX",
"XXXXXXXXXXXXXXXXXXXXXX  OOoo  XXXX  ooOO  XXXXXXXXXXXXXXXXXXXXXX",
"XXXXXXXXXXXXXXXXXXXXXX  OOoo  XXXX  ooOO  XXXXXXXXXXXXXXXXXXXXXX",
"XXXXXXXXXXXXXXXXXXXXXX  OOoo  XXXX  ooOO  XXXXXXXXXXXXXXXXXXXXXX",
"XXXXXXXXXXXXXXXXXXXXXX  OOoo  XXXX  ooOO  XXXXXXXXXXXXXXXXXXXXXX",
"XXXXXXXXXXXXXXXXXXXXXX  OOoo  XXXX  ooOO  XXXXXXXXXXXXXXXXXXXXXX",
"XXXXXXXXXXXXXXXXXXXXXX  OOoo        ooOO  XXXXXXXXXXXXXXXXXXXXXX",
"XXXXXXXXXXXXXXXXXXXXXX  OOoo        ooOO  XXXXXXXXXXXXXXXXXXXXXX",
"XXXXXXXXXXXXXXXXXXXXXX  OO++++++++++++OO  XXXXXXXXXXXXXXXXXXXXXX",
"XXXXXXXXXXXXXXXXXXXXXX  OO++++++++++++OO  XXXXXXXXXXXXXXXXXXXXXX",
"XXXXXXXXXXXXXXXXXXXX  OO++  @@@@@@@@  ++OO  XXXXXXXXXXXXXXXXXXXX",
"XXXXXXXXXXXXXXXXXXXX  OO++  @@@@@@@@  ++OO  XXXXXXXXXXXXXXXXXXXX",
"XXXXXXXXXXXXXXXXXXXX  OO@@  @@@@@@@@  @@OO  XXXXXXXXXXXXXXXXXXXX",
"XXXXXXXXXXXXXXXXXXXX  OO@@  @@@@@@@@  @@OO  XXXXXXXXXXXXXXXXXXXX",
"XXXXXXXXXXXXXXXXXXXX  OO@@@@@@    @@@@@@OO  XXXXXXXXXXXXXXXXXXXX",
"XXXXXXXXXXXXXXXXXXXX  OO@@@@@@    @@@@@@OO  XXXXXXXXXXXXXXXXXXXX",
"XXXXXXXXXXXXXXXXXXXX  OO@@@@@@@@@@@@@@@@OO  XXXXXXXXXXXXXXXXXXXX",
"XXXXXXXXXXXXXXXXXXXX  OO@@@@@@@@@@@@@@@@OO  XXXXXXXXXXXXXXXXXXXX",
"XXXXXXXXXXXXXXXXXXXX  OO@@@@@@@@@@@@@@@@OO  XXXXXXXXXXXXXXXXXXXX",
"XXXXXXXXXXXXXXXXXXXX  OO@@@@@@@@@@@@@@@@OO  XXXXXXXXXXXXXXXXXXXX",
"XXXXXXXXXXXXXXXXXXXXXX  @@@@@@@@@@@@@@@@  XXXXXXXXXXXXXXXXXXXXXX",
"XXXXXXXXXXXXXXXXXXXXXX  @@@@@@@@@@@@@@@@  XXXXXXXXXXXXXXXXXXXXXX",
"XXXXXX..XXXXXXXXXXXXXXXX                XXXXXXXXXXXXXXXXXXXXXXXX",
"XXXXXX..XXXXXXXXXXXXXXXX                XXXXXXXXXXXXXXXXXXXXXXXX",
"XXXXXX..XXXXXXXXXXXXXXXX  OOOOOOOOOOOO  XXXXXXXXXXXXXXXXXXXXXXXX",
"XXXXXX..XXXXXXXXXXXXXXXX  OOOOOOOOOOOO  XXXXXXXXXXXXXXXXXXXXXXXX",
"XXXXXXXX..XXXXXXXXXXXXXX  OO++++++++OO  XXXXXXXXXXXXXXXXXXXXXXXX",
"XXXXXXXX..XXXXXXXXXXXXXX  OO++++++++OO  XXXXXXXXXXXXXXXXXXXXXXXX",
"XXXXXXXX..XXXXXXXXXXXX    ++++@@@@@@++    XXXXXXXXXXXXXXXXXXXXXX",
"XXXXXXXX..XXXXXXXXXXXX    ++++@@@@@@++    XXXXXXXXXXXXXXXXXXXXXX",
"XXXXXXXX..XXXXXXXXXX  OO  ++++@@@@@@++  OO  XXXXXXXXXXXXXXXXXXXX",
"XXXXXXXX..XXXXXXXXXX  OO  ++++@@@@@@++  OO  XXXXXXXXXXXXXXXXXXXX",
"XXXXXXXXXXXXXXXXXX  OOOO  ++++@@  @@++  OOOO  XXXXXXXXXXXXXXXXXX",
"XXXXXXXXXXXXXXXXXX  OOOO  ++++@@  @@++  OOOO  XXXXXXXXXXXXXXXXXX",
"XXXXXXXXXXXXXXXXXX  OO@@  ++++@@  @@++  @@OO  XXXXXXXXXXXXXXXXXX",
"XXXXXXXXXXXXXXXXXX  OO@@  ++++@@  @@++  @@OO  XXXXXXXXXXXXXXXXXX",
"XXXXXXXXXXXXXXXXXX  OO@@  ++++@@  @@++  @@OO  XXXXXXXX..XXXXXXXX",
"XXXXXXXXXXXXXXXXXX  OO@@  ++++@@  @@++  @@OO  XXXXXXXX..XXXXXXXX",
"XXXXXXXXXXXXXXXXXX                            XXXXXXXXXX..XXXXXX",
"XXXXXXXXXXXXXXXXXX                            XXXXXXXXXX..XXXXXX",
"XXXXXXXXXXXXXXXXXXXXXXXXXXXXXX..XXXXXXXXXXXXXXXXXXXXXXXX..XXXXXX",
"XXXXXXXXXXXXXXXXXXXXXXXXXXXXXX..XXXXXXXXXXXXXXXXXXXXXXXX..XXXXXX",
"XXXXXXXXXXXXXXXXXXXXXXXXXXXXXXXXXXXXXXXXXXXXXXXXXXXXXXXXXXXXXXXX",
"XXXXXXXXXXXXXXXXXXXXXXXXXXXXXXXXXXXXXXXXXXXXXXXXXXXXXXXXXXXXXXXX",
"XXXXXXXXXXXXXXXXXXXXXXXXXXXXXXXXXXXXXXXXXXXXXXXXXXXXXXXXXXXXXXXX",
"XXXXXXXXXXXXXXXXXXXXXXXXXXXXXXXXXXXXXXXXXXXXXXXXXXXXXXXXXXXXXXXX",
"XXXXXXXXXXXXXXXXXXXXXXXXXXXXXXXXXXXXXXXXXXXXXXXXXXXXXXXXXXXXXXXX",
"XXXXXXXXXXXXXXXXXXXXXXXXXXXXXXXXXXXXXXXXXXXXXXXXXXXXXXXXXXXXXXXX"
};
