/* XPM */
static char *tree2[] = {
/* columns rows colors chars-per-pixel */
"64 64 10 1 ",
"  c black",
". c #894F27",
"X c #A05C2E",
"o c #398C41",
"O c #3B9142",
"+ c #3D9646",
"@ c #3E9947",
"# c #41A04B",
"$ c #69B548",
"% c #7AD354",
/* pixels */
"%%%%%%%%%%%%%%%%%%%%%%%%%%%%%%%%%%%%%%%%%%%%%%%%%%%%%%%%%%%%%%%%",
"%%%%%%%%%%%%%%%%%%%%%%%%%%%%%%%%%%%%%%%%%%%%%%%%%%%%%%%%%%%%%%%%",
"%%%%%%%%%%%%%%%%%%%%%%%%                %%%%%%%%%%%%%%%%$$%%%%%%",
"%%%%%%%%%%%%%%%%%%%%%%%%                %%%%%%%%%%%%%%%%$$%%%%%%",
"%%%%%%%%%%%%%%%%%%      ################      %%%%%%%%%%$$%%%%%%",
"%%%%%%%%%%%%%%%%%%      ################      %%%%%%%%%%$$%%%%%%",
"%%%%%%%%%%%%%%    ########@@@@@@@@@@@@########    %%%%%%%%%%%%%%",
"%%%%%%%%%%%%%%    ########@@@@@@@@@@@@########    %%%%%%%%%%%%%%",
"%%%%%%%%%%%%  ########@@@@@@@@@@@@@@@@@@@@########  %%%%%%%%%%%%",
"%%%%%%%%%%%%  ########@@@@@@@@@@@@@@@@@@@@########  %%%%%%%%%%%%",
"%%%%%%%%%%  ######@@@@@@@@@@@@@@@@@@@@@@@@@@@@######  %%%%%%%%%%",
"%%%%%%%%%%  ######@@@@@@@@@@@@@@@@@@@@@@@@@@@@######  %%%%%%%%%%",
"%%%%%%%%%%  ##@@@@@@@@@@@@############@@@@@@@@@@@@##  %%%%%%%%%%",
"%%%%%%%%%%  ##@@@@@@@@@@@@############@@@@@@@@@@@@##  %%%%%%%%%%",
"%%%%%%%%  ##@@@@@@++++++++++########++++++++++@@@@@@##  %%%%%%%%",
"%%%%%%%%  ##@@@@@@++++++++++########++++++++++@@@@@@##  %%%%%%%%",
"%%%%%%%%  ++@@@@++++++++++++++####++++++++++++++@@@@++  %%%%%%%%",
"%%%%%%%%  ++@@@@++++++++++++++####++++++++++++++@@@@++  %%%%%%%%",
"%%%%%%%%  ++++++++++OOOO++++++++++++++++OOOO++++++++++  %%%%%%%%",
"%%%%%%%%  ++++++++++OOOO++++++++++++++++OOOO++++++++++  %%%%%%%%",
"%%%%%%  ##OO++++OOOO####OOOO++++++++OOOO####OOOO++++OO##  %%%%%%",
"%%%%%%  ##OO++++OOOO####OOOO++++++++OOOO####OOOO++++OO##  %%%%%%",
"%%%%%%  ####OOOO@@@@@@######OOOOOOOO######@@@@@@OOOO####  %%%%%%",
"%%%%%%  ####OOOO@@@@@@######OOOOOOOO######@@@@@@OOOO####  %%%%%%",
"%%%%%%  ####@@@@@@@@@@@@@@@@@@@@@@@@@@@@@@@@@@@@@@@@####  %%%%%%",
"%%%%%%  ####@@@@@@@@@@@@@@@@@@@@@@@@@@@@@@@@@@@@@@@@####  %%%%%%",
"%%%%%%%%  @@@@@@++++++@@@@@@########@@@@@@++++++@@@@@@  %%%%%%%%",
"%%%%%%%%  @@@@@@++++++@@@@@@########@@@@@@++++++@@@@@@  %%%%%%%%",
"%%%%%%%%  @@++++++++++++@@@@@@####@@@@@@++++++++++++@@  %%%%%%%%",
"%%%%%%%%  @@++++++++++++@@@@@@####@@@@@@++++++++++++@@  %%%%%%%%",
"%%%%%%%%  ++++++oooooo++++++@@@@@@@@++++++oooooo++++++  %%%%%%%%",
"%%%%%%%%  ++++++oooooo++++++@@@@@@@@++++++oooooo++++++  %%%%%%%%",
"%%%%%%%%%%  oooo++++++oooo++++++++++++oooo++++++oooo  %%%%%%%%%%",
"%%%%%%%%%%  oooo++++++oooo++++++++++++oooo++++++oooo  %%%%%%%%%%",
"%%%%%%%%%%%%    ++++++  oo..oooooo..oooo  ++++++    %%%%%%%%%%%%",
"%%%%%%%%%%%%    ++++++  oo..oooooo..oooo  ++++++    %%%%%%%%%%%%",
"%%%%%%%%%%%%%%%%      %%  ..XXXXXX..XX  %%      %%%%%%%%%%%%%%%%",
"%%%%%%%%%%%%%%%%      %%  ..XXXXXX..XX  %%      %%%%%%%%%%%%%%%%",
"%%%%%%$$%%%%%%%%%%%%%%%%  ..XX..XX..XX  %%%%%%%%%%%%%%%%%%%%%%%%",
"%%%%%%$$%%%%%%%%%%%%%%%%  ..XX..XX..XX  %%%%%%%%%%%%%%%%%%%%%%%%",
"%%%%%%$$%%%%%%%%%%%%%%%%  ..XX..XX..XX  %%%%%%%%%%%%%%%%%%%%%%%%",
"%%%%%%$$%%%%%%%%%%%%%%%%  ..XX..XX..XX  %%%%%%%%%%%%%%%%%%%%%%%%",
"%%%%%%%%$$%%%%%%%%%%%%%%  ..XX..XXXXXX  %%%%%%%%%%%%%%%%%%%%%%%%",
"%%%%%%%%$$%%%%%%%%%%%%%%  ..XX..XXXXXX  %%%%%%%%%%%%%%%%%%%%%%%%",
"%%%%%%%%$$%%%%%%%%%%%%%%  XXXX..XXXX..  %%%%%%%%%%%%%%%%%%%%%%%%",
"%%%%%%%%$$%%%%%%%%%%%%%%  XXXX..XXXX..  %%%%%%%%%%%%%%%%%%%%%%%%",
"%%%%%%%%$$%%%%%%%%%%%%%%  XXXX..XXXX..  %%%%%%%%%%%%%%%%%%%%%%%%",
"%%%%%%%%$$%%%%%%%%%%%%%%  XXXX..XXXX..  %%%%%%%%%%%%%%%%%%%%%%%%",
"%%%%%%%%%%%%%%%%%%%%%%%%  XXXXXX..XXXX  %%%%%%%%%%%%%%%%%%%%%%%%",
"%%%%%%%%%%%%%%%%%%%%%%%%  XXXXXX..XXXX  %%%%%%%%%%%%%%%%%%%%%%%%",
"%%%%%%%%%%%%%%%%%%%%%%  XXXXXXXXXXXXXXXX  %%%%%%%%%%%%%%%%%%%%%%",
"%%%%%%%%%%%%%%%%%%%%%%  XXXXXXXXXXXXXXXX  %%%%%%%%%%%%%%%%%%%%%%",
"%%%%%%%%%%%%%%%%%%%%%%  XXXX..XXXXXX..XX  %%%%%%%%%%%%$$%%%%%%%%",
"%%%%%%%%%%%%%%%%%%%%%%  XXXX..XXXXXX..XX  %%%%%%%%%%%%$$%%%%%%%%",
"%%%%%%%%%%%%%%%%%%%%  ..XXXX..XX..XX..XXXX  %%%%%%%%%%%%$$%%%%%%",
"%%%%%%%%%%%%%%%%%%%%  ..XXXX..XX..XX..XXXX  %%%%%%%%%%%%$$%%%%%%",
"%%%%%%%%%%%%%%%%%%  ..XXXXXX..XX..XXXX..XXXX  %%%%%%%%%%$$%%%%%%",
"%%%%%%%%%%%%%%%%%%  ..XXXXXX..XX..XXXX..XXXX  %%%%%%%%%%$$%%%%%%",
"%%%%%%%%%%%%%%%%%%%%      ..XXXX..XXXX      %%%%%%%%%%%%%%%%%%%%",
"%%%%%%%%%%%%%%%%%%%%      ..XXXX..XXXX      %%%%%%%%%%%%%%%%%%%%",
"%%%%%%%%%%%%%%%%%%%%%%%%%%            %%%%%%%%%%%%%%%%%%%%%%%%%%",
"%%%%%%%%%%%%%%%%%%%%%%%%%%            %%%%%%%%%%%%%%%%%%%%%%%%%%",
"%%%%%%%%%%%%%%%%%%%%%%%%%%%%%%%%%%%%%%%%%%%%%%%%%%%%%%%%%%%%%%%%",
"%%%%%%%%%%%%%%%%%%%%%%%%%%%%%%%%%%%%%%%%%%%%%%%%%%%%%%%%%%%%%%%%"
};
